<svg xmlns="http://www.w3.org/2000/svg" viewBox="0 0 512 512" width="512" height="512" role="img" aria-label="KnowYourRights"><title>KnowYourRights</title><defs><linearGradient id="kyr-g" x1="0" y1="0" x2="1" y2="1"><stop offset="0" stop-color="#13806b"/><stop offset="1" stop-color="#0a4a3f"/></linearGradient></defs><g transform="translate(0 0) scale(1.0)"><rect width="512" height="512" rx="116" fill="url(#kyr-g)"/><path fill="#fff" d="M160 84h192a88 88 0 0 1 88 88v132a88 88 0 0 1-88 88H244l-96 70 16-72a88 88 0 0 1-84-88V172a88 88 0 0 1 88-88z"/><rect x="246.5" y="172" width="19" height="148" rx="9.5" fill="#0e6b5a"/><rect x="200.0" y="316" width="112" height="22.8" rx="11.4" fill="#0e6b5a"/><rect x="145.0" y="162.5" width="222" height="19" rx="9.5" fill="#0e6b5a"/><path d="M99.0 258h92a46 35.88 0 0 1-92 0z" fill="#0e6b5a"/><path d="M145.0 172L105.0 258M145.0 172L185.0 258" stroke="#0e6b5a" stroke-width="10.450000000000001" stroke-linecap="round" fill="none"/><path d="M321.0 258h92a46 35.88 0 0 1-92 0z" fill="#0e6b5a"/><path d="M367.0 172L327.0 258M367.0 172L407.0 258" stroke="#0e6b5a" stroke-width="10.450000000000001" stroke-linecap="round" fill="none"/><circle cx="256" cy="150" r="21.849999999999998" fill="#f2a93b"/></g></svg>
