<svg xmlns="http://www.w3.org/2000/svg" viewBox="0 0 512 512" width="512" height="512" role="img" aria-label="KnowYourRights"><title>KnowYourRights</title><defs><linearGradient id="kyr-g" x1="0" y1="0" x2="1" y2="1"><stop offset="0" stop-color="#13806b"/><stop offset="1" stop-color="#0a4a3f"/></linearGradient></defs><rect width="512" height="512" rx="116" fill="url(#kyr-g)"/><rect x="242.0" y="138" width="28" height="214" rx="14.0" fill="#ffffff"/><rect x="174.0" y="348" width="164" height="33.6" rx="16.8" fill="#ffffff"/><rect x="98.0" y="124.0" width="316" height="28" rx="14.0" fill="#ffffff"/><path d="M36.0 254h124a62 48.36 0 0 1-124 0z" fill="#ffffff"/><path d="M98.0 138L42.0 254M98.0 138L154.0 254" stroke="#ffffff" stroke-width="15.400000000000002" stroke-linecap="round" fill="none"/><path d="M352.0 254h124a62 48.36 0 0 1-124 0z" fill="#ffffff"/><path d="M414.0 138L358.0 254M414.0 138L470.0 254" stroke="#ffffff" stroke-width="15.400000000000002" stroke-linecap="round" fill="none"/><circle cx="256" cy="116" r="32.199999999999996" fill="#f2a93b"/></svg>
